<svg width="100" height="100" viewBox="0 0 100 100" fill="none" xmlns="http://www.w3.org/2000/svg">
<g clip-path="url(#clip0_329_1809)">
<path d="M4.46667 35L8.26667 44.4954H8.53333L12.7333 35.2752H13L17.4667 44.3578H17.7333L21.5333 35H25.7333V35.1376L18.0667 55.7798H17.8667L13.1333 44.9771H12.8667L8.26667 55.7798H8L0 35H4.46667Z" fill="#010101"/>
<path d="M71.9297 35H76.063V54.8853H71.9297V35Z" fill="#010101"/>
<path d="M31.3969 38.9219H32.9302V42.5687C32.0635 42.5687 28.7302 43.3944 28.7302 45.321V54.6788H24.7969V39.1283H28.7302V40.0228C30.1302 39.6788 30.3302 38.9219 31.3969 38.9219Z" fill="#010101"/>
<path d="M91.8672 39.1289H95.8005V40.2986C96.1339 40.161 96.6005 39.2665 98.6005 39.1289C98.8672 39.1289 100.001 39.1289 100.001 39.1289V42.9821C98.0672 42.8445 95.6672 43.739 95.6672 45.5968V54.9546H91.8672V39.1289Z" fill="#010101"/>
<path d="M84.4016 38.8516C87.8016 38.8516 90.0016 41.2598 91.2682 43.3928L81.5349 50.4112C82.4016 51.1681 83.2016 51.7873 84.2682 51.8561C85.8016 51.8561 87.0682 51.3745 88.9349 49.5167C89.0016 49.5167 90.4682 52.613 90.4682 52.613C90.4682 52.7506 87.6016 55.2965 84.3349 55.2965C78.2682 55.2965 76.6016 49.035 76.6016 47.5901V45.7323C76.6016 43.6681 78.8016 38.8516 84.4016 38.8516ZM80.2016 46.2828L80.2682 47.4525L86.0016 43.3928C85.7349 42.98 84.8682 42.4984 83.8016 42.4984C80.8016 42.4984 80.2016 45.8699 80.2016 46.2828Z" fill="#010101"/>
<path d="M34.4674 39.1289H43.1341V54.817H39.6674V53.8537C39.0674 54.0601 38.0674 54.8858 36.3341 54.817C33.2674 54.7482 31.3341 52.2711 31.2674 49.3812C31.2007 46.9041 33.0007 43.9454 36.2007 43.9454C38.7341 43.9454 39.1341 44.4959 39.6007 44.7023V42.5005H33.6007C34.0007 40.8491 34.1341 40.4362 34.4674 39.1289ZM34.8674 49.5188C34.8674 50.2069 35.8674 51.3078 36.9341 51.3078C38.5341 51.3078 39.1341 50.0693 39.1341 49.7252C39.1341 48.6243 38.4674 47.5234 37.0007 47.5922C35.0007 47.5234 34.8674 48.8307 34.8674 49.5188Z" fill="#010101"/>
<path d="M63.5297 38.7852C63.9297 38.7852 69.1964 38.7852 71.463 38.7852V39.198C70.9963 40.7806 70.663 41.8815 70.5964 42.5696H69.3297C69.3964 42.8448 69.863 44.6338 69.863 45.0466V46.354C69.863 48.143 68.5297 49.7943 68.3964 49.9319C68.3964 50.0008 70.863 52.2026 71.3297 55.8494C71.3964 56.2622 71.3297 57.8448 71.1964 58.3264C70.1297 62.3173 67.5964 64.0374 65.3297 64.6567C64.5297 64.9319 62.663 64.9319 62.063 64.8631C61.7964 64.7943 59.863 64.7255 57.1297 61.9044L59.9297 58.9457C60.7964 60.3219 62.1964 60.8723 63.3964 60.8723C65.7297 60.8723 67.463 58.8081 67.463 56.7439C67.463 54.198 65.7964 52.2026 62.9964 52.2714C60.9964 52.2714 60.1964 54.0604 59.9297 54.3356L56.7964 51.7897L56.663 51.7209V54.7485H52.5964V45.253C52.5964 45.1154 52.463 43.1888 50.5297 43.1888C48.7297 43.1888 47.863 44.565 47.863 46.1475V54.8173H43.9297V39.1292H47.863V40.1613C48.9297 39.6108 49.5964 39.0604 51.663 39.0604C54.3964 39.0604 56.7297 41.4686 56.663 43.8081V51.6521C56.7964 51.5833 58.063 50.276 58.3964 49.9319C58.3964 49.9319 56.9964 48.0053 56.9964 46.4916V45.0466C56.9297 43.0512 59.1297 38.7852 63.5297 38.7852ZM60.9964 45.5283C60.9964 47.3861 62.263 48.2806 63.5297 48.2806C64.5964 48.2806 66.063 47.1797 66.063 45.6659C66.063 44.8402 65.263 43.0512 63.5297 43.0512C62.1297 43.0512 60.9964 44.1521 60.9964 45.5283Z" fill="#010101"/>
<path d="M77.6698 35.5496C77.4698 35.756 77.3365 35.9624 77.3365 36.2376C77.3365 36.5129 77.4698 36.7881 77.6698 36.9257C77.8698 37.1321 78.1365 37.2009 78.4031 37.2009C78.6698 37.2009 78.9365 37.1321 79.1365 36.9257C79.3365 36.7193 79.4698 36.5129 79.4698 36.2376C79.4698 35.9624 79.3365 35.6872 79.1365 35.5496C78.9365 35.3431 78.6698 35.2743 78.4031 35.2743C78.1365 35.2743 77.8698 35.3431 77.6698 35.5496ZM79.2698 37.1321C79.0031 37.3386 78.7365 37.4762 78.4031 37.4762C78.0698 37.4762 77.7365 37.3386 77.5365 37.1321C77.3365 36.9257 77.2031 36.6505 77.2031 36.3064C77.2031 35.9624 77.3365 35.6872 77.5365 35.4808C77.8031 35.2743 78.0698 35.1367 78.4031 35.1367C78.7365 35.1367 79.0698 35.2743 79.2698 35.4808C79.5365 35.6872 79.6031 35.9624 79.6031 36.3064C79.6698 36.5817 79.5365 36.8569 79.2698 37.1321ZM78.6698 35.8248C78.6031 35.8248 78.5365 35.756 78.4031 35.756H78.2031V36.2376H78.4031C78.5365 36.2376 78.6031 36.2376 78.6031 36.2376C78.6698 36.2376 78.7365 36.1 78.7365 36.0312C78.7365 35.9624 78.6698 35.8936 78.6698 35.8248ZM78.4031 35.6184C78.6031 35.6184 78.6698 35.6184 78.8031 35.6872C78.9365 35.756 79.0031 35.8248 79.0031 36.0312C79.0031 36.1688 78.9365 36.2376 78.8698 36.3064C78.8031 36.3064 78.7365 36.3753 78.6698 36.3753C78.8031 36.3753 78.8698 36.4441 78.9365 36.5129C79.0031 36.5817 79.0031 36.6505 79.0031 36.7193V36.7881V36.8569V36.9257H78.8031V36.8569V36.7881C78.8031 36.6505 78.7365 36.5129 78.6698 36.5129C78.6031 36.5129 78.5365 36.4441 78.4031 36.4441H78.2031V36.9257H77.9365V35.6184H78.4031Z" fill="#010101"/>
</g>
<defs>
<clipPath id="clip0_329_1809">
<rect width="100" height="30" fill="white" transform="translate(0 35)"/>
</clipPath>
</defs>
</svg>
